<?xml version="1.0" encoding="UTF-8" standalone="no"?>
<svg
   xmlns:dc="http://purl.org/dc/elements/1.1/"
   xmlns:cc="http://creativecommons.org/ns#"
   xmlns:rdf="http://www.w3.org/1999/02/22-rdf-syntax-ns#"
   xmlns:svg="http://www.w3.org/2000/svg"
   xmlns="http://www.w3.org/2000/svg"
   width="40mm"
   height="40mm"
   viewBox="0 0 250 250"
   version="1.1"
   id="MSR-1">
  <metadata
     id="metadata24">
    <rdf:RDF>
      <cc:Work
         rdf:about="">
        <dc:format>image/svg+xml</dc:format>
        <dc:type
           rdf:resource="http://purl.org/dc/dcmitype/StillImage" />
      </cc:Work>
    </rdf:RDF>
  </metadata>
  <defs
     id="defs22" />
  <circle
     class="Rang"
     cx="125"
     cy="125"
     r="108.5"
     fill="none"
     stroke="#0078ff"
     stroke-width="33"
     id="Rang0"
     layer="0"
     stroke-dasharray="0" />
  <g
     aria-label="* KAZAKHSTAN SOCIETY OF ONCOLOGISTS AND RADIOLOGISTS"
     transform="rotate(-93,125,125)"
     id="RangText9"
     style="font-style:normal;font-weight:bold;font-size:18px;font-family:Verdana;fill:#ffffff;stroke:none">
    <path
       d="M 14.841989,113.55967 16.229905,114.62199 14.145722,117.31224 17.265921,117.40626 17.151604,119.27484 14.120557,119.01896 15.794293,121.88629 14.279532,122.75341 12.636573,119.52695 10.595551,122.51923 9.1884798,121.48215 11.225042,118.85063 8.1859449,118.72634 8.2997245,116.86653 11.339544,117.12295 9.6586455,114.22877 11.17448,113.3441 12.807057,116.59634 Z"
       id="path26" />
    <path
       d="M 26.482343,93.070612 25.475879,97.086047 19.443871,99.606251 20.180815,100.60645 24.332656,101.6471 23.512099,104.92083 10.817868,101.73904 11.638424,98.46531 17.384504,99.905558 12.775237,93.929829 13.726143,90.136053 18.356446,96.570102 Z"
       id="path28" />
    <path
       d="M 31.51399,80.47641 30.221853,83.717599 27.429188,83.57883 25.632564,88.08547 27.754749,89.906064 26.49516,93.06561 16.128777,83.72897 17.567379,80.120393 Z M 24.897669,83.449553 19.942365,83.205564 23.706429,86.437651 Z"
       id="path30" />
    <path
       d="M 37.265627,70.15989 31.939102,79.77866 29.793909,78.590729 25.864073,68.959887 22.858057,74.388226 20.643664,73.161975 25.646595,64.127559 27.830233,65.336779 31.725881,74.938643 35.051234,68.933639 Z"
       id="path32" />
    <path
       d="M 45.559183,58.620677 43.499474,61.43715 40.829679,60.606229 37.965802,64.522332 39.56683,66.814697 37.559003,69.560226 29.848958,57.933106 32.142135,54.797386 Z M 38.41041,59.849633 33.672568,58.377416 36.511534,62.446179 Z"
       id="path34" />
    <path
       d="M 55.170012,48.562356 52.307454,51.552749 45.818892,50.755806 45.963951,51.989679 49.055928,54.94948 46.722123,57.387507 37.268418,48.337933 39.602224,45.899906 43.881469,49.996221 42.835517,42.522222 45.540057,39.696904 46.377364,47.579518 Z"
       id="path36" />
    <path
       d="M 65.500767,40.343524 62.855249,42.4392 59.275136,37.919773 55.368863,41.014169 58.948975,45.533596 56.303457,47.629272 48.177256,37.370998 50.822774,35.275323 53.797106,39.03003 57.703379,35.935634 54.729048,32.180926 57.374566,30.085251 Z"
       id="path38" />
    <path
       d="M 75.020787,29.725442 Q 76.010689,31.386429 75.219788,33.269738 74.431938,35.140997 72.015956,36.580855 70.619217,37.413272 69.433339,37.792613 68.250512,38.159904 67.119541,38.322353 L 65.5132,35.627024 65.830298,35.438043 Q 67.156199,35.61984 68.495517,35.343453 69.842386,35.062566 70.869178,34.450626 71.133426,34.293142 71.536776,33.991367 71.940125,33.689593 72.148929,33.42191 72.400135,33.088031 72.490045,32.758195 72.587505,32.423859 72.349029,32.023712 72.128551,31.653765 71.653969,31.578498 71.182437,31.491182 70.49295,31.707698 69.768764,31.934661 68.982577,32.22927 68.19944,32.51183 67.458857,32.676945 65.764995,33.062315 64.670396,32.650584 63.578848,32.226804 62.881417,31.056562 61.945509,29.486174 62.760357,27.660215 63.578255,25.822206 65.790388,24.503836 66.90023,23.842402 68.110358,23.417914 69.323538,22.981376 70.309762,22.833571 L 71.85311,25.423201 71.543562,25.607682 Q 70.540099,25.469047 69.335078,25.696091 68.133108,25.911086 67.106315,26.523025 66.743918,26.739004 66.413018,27.007832 66.085168,27.264611 65.833962,27.59849 65.607008,27.887222 65.535096,28.247258 65.458684,28.599744 65.634167,28.894191 65.89964,29.339638 66.383374,29.378756 66.862607,29.410324 67.923338,29.044179 68.618926,28.803564 69.257165,28.586897 69.902953,28.365729 70.685786,28.185667 72.228801,27.83904 73.276803,28.20692 74.327855,28.562751 75.020787,29.725442 Z"
       id="path40" />
    <path
       d="M 84.107838,18.553813 80.372658,20.212517 84.656752,29.859723 81.572216,31.229491 77.288123,21.582285 73.552943,23.240989 72.525617,20.927588 83.080512,16.240411 Z"
       id="path42" />
    <path
       d="M 101.69068,24.111683 98.3492,25.1164 96.720505,22.843608 92.074422,24.240595 91.969253,27.034727 88.711945,28.014136 89.572872,14.089571 93.293105,12.970969 Z M 95.24684,20.781179 92.355129,16.749731 92.166285,21.707442 Z"
       id="path44" />
    <path
       d="M 115.12068,21.994364 111.90618,22.486473 105.05618,14.44807 106.41546,23.327048 103.35734,23.795216 101.37694,10.859014 105.36466,10.248533 111.21667,16.937063 110.08216,9.5263307 113.14028,9.0581624 Z"
       id="path46" />
    <path
       d="M 134.81891,17.877675 Q 134.74659,19.809916 133.05883,20.960485 131.38017,22.102601 128.56964,21.997408 126.9448,21.936593 125.74327,21.610175 124.55086,21.275303 123.51335,20.79671 L 123.63071,17.661211 123.99959,17.675017 Q 125.01353,18.548513 126.28785,19.044764 127.57095,19.541345 128.76543,19.586052 129.07283,19.597557 129.57543,19.563597 130.07803,19.529637 130.39882,19.418511 130.79118,19.274882 131.04598,19.046948 131.30956,18.819343 131.32698,18.353848 131.34309,17.923485 130.98571,17.602277 130.63745,17.272614 129.94106,17.079441 129.20987,16.876169 128.38986,16.695959 127.57897,16.507295 126.86765,16.243201 125.23651,15.645642 124.54172,14.704934 123.85604,13.755773 123.90699,12.394421 123.97536,10.567576 125.65205,9.4781575 127.33785,8.3802852 129.91124,8.4766027 131.20233,8.5249257 132.44875,8.8266384 133.70429,9.1198968 134.61236,9.5320786 L 134.4996,12.544618 134.1395,12.53114 Q 133.37271,11.869185 132.23793,11.404541 131.11226,10.931444 129.91778,10.886737 129.4962,10.870958 129.07232,10.916659 128.65755,10.953906 128.26519,11.097535 127.91772,11.216458 127.66161,11.479524 127.40583,11.733807 127.39301,12.076341 127.37361,12.594532 127.75832,12.890378 128.14336,13.177442 129.23268,13.446888 129.94729,13.623154 130.60075,13.788335 131.26299,13.953845 132.0179,14.228366 133.50137,14.776421 134.1809,15.654991 134.86954,16.525106 134.81891,17.877675 Z"
       id="path48" />
    <path
       d="M 150.42155,17.905745 Q 149.89019,20.989204 147.80983,22.503612 145.73095,24.00936 142.61285,23.472034 139.50341,22.9362 138.04843,20.821482 136.59495,18.698103 137.1263,15.614645 137.66214,12.505202 139.73952,11.008116 141.81839,9.5023688 144.92783,10.038203 148.02861,10.572544 149.49225,12.688754 150.95738,14.796303 150.42155,17.905745 Z M 145.4502,20.411373 Q 146.03673,19.905982 146.40791,19.149433 146.78057,18.384222 146.96714,17.301547 147.16715,16.140919 147.03895,15.280478 146.91075,14.420037 146.56425,13.843047 146.21207,13.247242 145.67205,12.913381 145.1407,12.581014 144.51708,12.473549 143.8848,12.364591 143.283,12.49277 142.68986,12.622441 142.13259,13.061526 141.61594,13.471936 141.19101,14.281652 140.77623,15.0842 140.5822,16.210182 140.38369,17.362148 140.50323,18.221097 140.63292,19.072877 140.97793,19.658528 141.32294,20.244179 141.86146,20.586701 142.39998,20.929222 143.04093,21.039673 143.68187,21.150123 144.30397,21.007606 144.92757,20.856428 145.4502,20.411373 Z"
       id="path50" />
    <path
       d="M 157.13634,27.05897 Q 155.74534,26.618808 154.69375,25.834338 153.65054,25.05252 153.06141,23.971895 152.47228,22.89127 152.3875,21.527748 152.3111,20.166877 152.8149,18.574764 153.28423,17.091584 154.11018,16.025463 154.93612,14.959343 156.05556,14.364059 157.13089,13.791687 158.47235,13.718367 159.82219,13.647698 161.24671,14.098466 162.03439,14.347714 162.63368,14.638757 163.24401,14.924073 163.73523,15.236226 164.24628,15.573093 164.63513,15.917387 165.03502,16.255953 165.32555,16.532259 L 164.36833,19.557274 163.99963,19.440605 Q 163.82864,19.165252 163.55583,18.774709 163.29139,18.386818 162.92374,17.975487 162.54772,17.561505 162.06976,17.207454 161.59181,16.853403 160.9801,16.659838 160.30136,16.445061 159.62071,16.469364 158.94271,16.485287 158.26674,16.815283 157.6212,17.136474 157.06191,17.826043 156.511,18.518263 156.15569,19.641122 155.78447,20.814258 155.86202,21.705347 155.94796,22.599087 156.30754,23.210677 156.67286,23.833298 157.23769,24.233275 157.80517,24.624873 158.41687,24.818438 159.00344,25.004049 159.62893,25.008385 160.26281,25.015374 160.84428,24.867501 161.33177,24.754422 161.77121,24.589263 162.21066,24.424104 162.50054,24.294588 L 162.83572,24.400651 161.89176,27.383769 Q 161.35622,27.444769 160.87053,27.493889 160.38484,27.543008 159.87316,27.528593 159.20577,27.510998 158.64031,27.433472 158.07485,27.355946 157.13634,27.05897 Z"
       id="path52" />
    <path
       d="M 170.18815,32.002825 163.17727,28.906786 164.11461,26.784227 166.07637,27.65055 169.4884,19.924113 167.52664,19.05779 168.46397,16.935231 175.47485,20.03127 174.53752,22.153829 172.57576,21.287506 169.16372,29.013943 171.12548,29.880266 Z"
       id="path54" />
    <path
       d="M 180.68953,37.838737 172.48082,33.125053 178.99769,21.776148 187.2064,26.489833 185.94592,28.68492 180.64875,25.643127 179.52394,27.601937 184.44002,30.424896 183.17954,32.619983 178.26346,29.797024 176.65284,32.601858 181.95001,35.64365 Z"
       id="path56" />
    <path
       d="M 197.38096,36.920342 194.09774,34.486549 187.81175,42.966431 185.10045,40.956589 191.38644,32.476708 188.10322,30.042915 189.6106,28.009438 198.88834,34.886865 Z"
       id="path58" />
    <path
       d="M 209.81594,45.031307 200.79359,47.535482 197.31079,51.209588 194.86139,48.887726 198.23534,45.328436 200.30536,36.01595 203.08646,38.652232 201.65759,44.273316 207.12414,42.479677 Z"
       id="path60" />
    <path
       d="M 218.39164,66.766836 Q 215.84451,68.584031 213.30068,68.196383 210.764,67.80363 208.92639,65.227884 207.09388,62.659292 207.54793,60.132866 208.00913,57.601336 210.55626,55.78414 213.12485,53.951631 215.65438,54.349489 218.19105,54.742241 220.02356,57.310833 221.85097,59.872269 221.40202,62.40585 220.96023,64.934327 218.39164,66.766836 Z M 213.09608,65.049406 Q 213.86846,65.102973 214.66453,64.826542 215.46775,64.545006 216.36211,63.906946 217.32086,63.222945 217.83517,62.521324 218.34949,61.819702 218.50925,61.1659 218.67821,60.494733 218.52939,59.877537 218.38568,59.267496 218.01815,58.752347 217.64553,58.230043 217.12771,57.897694 216.615,57.5725 215.91006,57.492407 215.25417,57.420516 214.38249,57.696904 213.52308,57.975343 212.59295,58.638926 211.64135,59.317822 211.12193,60.012288 210.61477,60.708806 210.44786,61.367712 210.28095,62.026619 210.42261,62.64892 210.56428,63.27122 210.94201,63.800679 211.31974,64.330138 211.86207,64.666588 212.41157,64.997933 213.09608,65.049406 Z"
       id="path62" />
    <path
       d="M 227.90346,75.943862 225.0637,70.635168 222.91697,71.783512 225.54946,76.70471 223.31748,77.898657 220.68499,72.977459 215.75605,75.61409 214.17241,72.653622 225.71204,66.480753 230.13544,74.749916 Z"
       id="path64" />
    <path
       d="M 231.83593,98.505777 Q 228.85067,99.442918 226.55268,98.285068 224.26308,97.124585 223.31541,94.105775 222.37037,91.095351 223.58594,88.834517 224.8099,86.57105 227.79517,85.633908 230.80559,84.68887 233.08681,85.851985 235.37641,87.012468 236.32145,90.022892 237.26385,93.02493 236.05091,95.29415 234.84636,97.560738 231.83593,98.505777 Z M 227.33467,95.229938 Q 228.0523,95.520526 228.89485,95.504754 229.74579,95.48635 230.79398,95.157297 231.91765,94.804553 232.62429,94.297152 233.33093,93.789752 233.68567,93.217792 234.05455,92.632182 234.10459,91.999273 234.15726,91.374749 233.96773,90.770987 233.77556,90.15884 233.38643,89.68222 232.99993,89.213986 232.35465,88.919109 231.75343,88.647246 230.83902,88.639517 229.93563,88.637541 228.8455,88.979756 227.73022,89.329867 227.02095,89.828882 226.3227,90.333651 225.95957,90.908242 225.59644,91.482834 225.53801,92.118376 225.47959,92.753918 225.67439,93.374451 225.86919,93.994984 226.28036,94.48311 226.69991,94.968604 227.33467,95.229938 Z"
       id="path66" />
    <path
       d="M 227.94833,114.53226 227.43784,111.32063 235.43692,104.42475 226.56587,105.83481 226.08021,102.77941 239.00487,100.72504 239.63816,104.7092 232.98321,110.59938 240.38734,109.42249 240.87299,112.47788 Z"
       id="path68" />
    <path
       d="M 228.04123,123.59448 Q 228.0068,122.1359 228.4081,120.88683 228.80961,119.64654 229.64096,118.73897 230.47231,117.8314 231.73476,117.30928 232.99741,116.79594 234.66687,116.75653 236.2221,116.71982 237.49836,117.15565 238.77463,117.59147 239.7006,118.45756 240.59059,119.28932 241.09473,120.53461 241.59907,121.78868 241.63433,123.28241 241.65383,124.10835 241.57273,124.76963 241.50063,125.43948 241.36453,126.00535 241.21148,126.598 241.0118,127.07745 240.82111,127.56549 240.65389,127.92989 L 237.48192,128.00476 237.47279,127.61815 Q 237.67786,127.36715 237.9589,126.98248 238.24015,126.60659 238.51012,126.12548 238.77989,125.63558 238.95992,125.06867 239.13995,124.50177 239.12481,123.86034 239.10801,123.14863 238.86442,122.5126 238.62961,121.87636 238.09834,121.34383 237.58527,120.83724 236.75165,120.53163 235.91824,120.23481 234.74084,120.2626 233.51071,120.29164 232.69286,120.65381 231.87521,121.02477 231.41318,121.56317 230.94257,122.11056 230.74724,122.77453 230.56071,123.4383 230.57585,124.07972 230.59037,124.69479 230.78899,125.28792 230.98782,125.88984 231.31617,126.392 231.58114,126.81653 231.87981,127.17872 232.17848,127.54091 232.39496,127.77318 L 232.40325,128.12464 229.27522,128.19848 Q 229.04394,127.71161 228.84006,127.26806 228.63617,126.8245 228.48397,126.33577 228.28431,125.6987 228.17439,125.13864 228.06446,124.57858 228.04123,123.59448 Z"
       id="path70" />
    <path
       d="M 233.43194,143.87466 Q 230.32192,143.53142 228.68404,141.5468 227.0549,139.56315 227.402,136.41818 227.74813,133.28195 229.77064,131.70131 231.80189,130.12163 234.91192,130.46487 238.04815,130.811 239.66855,132.79369 241.29769,134.77735 240.95156,137.91358 240.6064,141.04108 238.58292,142.63045 236.56818,144.22079 233.43194,143.87466 Z M 230.62922,139.06454 Q 231.16928,139.61932 231.94696,139.9439 232.73337,140.26943 233.82538,140.38995 234.996,140.51915 235.84708,140.33896 236.69815,140.15878 237.25305,139.7779 237.82638,139.39021 238.12685,138.83093 238.42636,138.28038 238.49578,137.65139 238.56616,137.01366 238.40169,136.42075 238.23626,135.83658 237.76417,135.30698 237.32316,134.81619 236.48914,134.44119 235.6629,134.07588 234.52722,133.95054 233.36533,133.82231 232.51522,133.99376 231.67288,134.17491 231.10925,134.55483 230.54562,134.93474 230.23641,135.49306 229.9272,136.05138 229.85586,136.69784 229.78451,137.34431 229.96452,137.95662 230.15326,138.56989 230.62922,139.06454 Z"
       id="path72" />
    <path
       d="M 224.13666,154.62361 226.35814,145.44928 239.07749,148.52916 238.28321,151.80937 228.02403,149.32519 226.59681,155.21931 Z"
       id="path74" />
    <path
       d="M 225.18788,170.5899 Q 222.26605,169.47055 221.18392,167.13595 220.11,164.8045 221.24192,161.84983 222.37071,158.90338 224.72748,157.88622 227.09246,156.8722 230.01429,157.99155 232.96075,159.12033 234.02646,161.44864 235.10038,163.78009 233.9716,166.72655 232.84596,169.6648 230.48605,170.69017 228.13434,171.71868 225.18788,170.5899 Z M 223.69411,165.22696 Q 224.07614,165.90038 224.74632,166.41125 225.42472,166.92526 226.45064,167.31829 227.55043,167.73962 228.4194,167.78075 229.28837,167.82188 229.92161,167.59388 230.57441,167.36395 231.00667,166.89895 231.43579,166.44216 231.66218,165.85123 231.89171,165.25209 231.88269,164.63685 231.87053,164.02983 231.54787,163.39798 231.24547,162.81153 230.53355,162.23761 229.8267,161.67505 228.75974,161.2663 227.66815,160.84811 226.80233,160.79878 225.94157,160.76079 225.30012,160.98565 224.65868,161.21051 224.2182,161.67237 223.77773,162.13423 223.54506,162.74157 223.31239,163.34892 223.33153,163.98685 223.35888,164.62793 223.69411,165.22696 Z"
       id="path76" />
    <path
       d="M 213.0183,180.82822 Q 213.14727,179.8937 213.55463,178.4603 213.96966,177.03119 214.67206,175.7725 216.29956,172.85603 218.80142,172.0882 221.31095,171.32466 224.10462,172.88363 226.76781,174.3698 227.46551,176.94323 228.17088,179.52095 226.50911,182.49881 225.87953,183.62703 225.10268,184.53215 224.3335,185.44156 223.02907,186.35422 L 220.35053,184.85949 220.53469,184.52947 Q 220.81578,184.40451 221.33871,184.15282 221.86931,183.90541 222.29067,183.6373 222.78468,183.32921 223.29527,182.82907 223.80158,182.33661 224.17419,181.66889 224.61104,180.88605 224.73628,180.12054 224.86151,179.35504 224.66834,178.58295 224.47766,177.84246 223.92236,177.16018 223.37046,176.48985 222.44179,175.97162 220.54609,174.91375 218.97961,175.3581 217.41314,175.80245 216.31671,177.76723 216.22249,177.93608 216.11881,178.13991 216.01085,178.35142 215.93197,178.52883 L 218.17305,179.77944 219.44507,177.49999 221.60172,178.70348 218.65937,183.97615 Z"
       id="path78" />
    <path
       d="M 206.58897,188.47976 211.07341,182.26464 212.95505,183.62232 211.70023,185.36141 218.54969,190.30355 219.80451,188.56446 221.68615,189.92213 217.20171,196.13725 215.32007,194.77957 216.57489,193.04048 209.72543,188.09834 208.47061,189.83743 Z"
       id="path80" />
    <path
       d="M 201.082,201.03946 Q 199.64367,199.74717 199.83989,197.71398 200.03677,195.6932 201.91645,193.60108 203.00314,192.39158 204.02297,191.67732 205.04346,190.97548 206.07523,190.48464 L 208.40925,192.58166 208.16254,192.85625 Q 206.84243,193.07622 205.64552,193.73771 204.44274,194.40574 203.64387,195.29489 203.43828,195.52372 203.14269,195.93162 202.8471,196.33952 202.72717,196.65712 202.58639,197.05052 202.59844,197.39218 202.60462,197.74037 202.95112,198.05169 203.27148,198.33952 203.74701,198.27052 204.22321,198.21393 204.81735,197.80251 205.44152,197.37081 206.10482,196.85611 206.76879,196.35382 207.42698,195.97632 208.9301,195.10551 210.09758,195.17377 211.26573,195.25443 212.2791,196.16491 213.63897,197.3867 213.40286,199.37224 213.16742,201.37019 211.44634,203.28578 210.58286,204.24685 209.55327,205.01141 208.52436,205.78839 207.62646,206.22229 L 205.38397,204.2075 205.62481,203.93945 Q 206.62419,203.77397 207.70751,203.19946 208.79148,202.63737 209.59035,201.74822 209.8723,201.4344 210.10849,201.07947 210.34534,200.73694 210.48611,200.34354 210.61713,200.00046 210.57893,199.6353 210.54727,199.27602 210.29229,199.04694 209.90656,198.70037 209.43302,198.8066 208.96601,198.91871 208.06178,199.58322 207.46896,200.01947 206.92381,200.41582 206.37278,200.81872 205.67868,201.22304 204.3081,202.01207 203.19813,201.97185 202.08883,201.94405 201.082,201.03946 Z"
       id="path82" />
    <path
       d="M 195.7371,214.4063 198.80868,211.71033 191.84552,203.77707 194.38205,201.55072 201.3452,209.48398 204.41678,206.788 206.08655,208.6904 197.40686,216.3087 Z"
       id="path84" />
    <path
       d="M 180.99201,216.8622 Q 179.89754,215.26818 180.56593,213.33799 181.23205,211.42002 183.55063,209.82806 184.89107,208.90771 186.05015,208.45304 187.20696,208.01059 188.32518,207.77588 L 190.1012,210.36255 189.79689,210.57149 Q 188.46205,210.47517 187.14324,210.83695 185.81717,211.20371 184.83178,211.88029 184.57818,212.05441 184.19503,212.38145 183.81189,212.7085 183.62069,212.98903 183.39144,213.33834 183.32288,213.67327 183.24708,214.01317 183.51075,214.39719 183.75452,214.75222 184.23295,214.79687 184.70912,214.85374 185.38328,214.59342 186.09141,214.32044 186.85707,213.97598 187.62045,213.64373 188.34891,213.43143 190.01454,212.93813 191.13331,213.27876 192.24981,213.6316 193.02092,214.75466 194.05569,216.26174 193.35972,218.13624 192.66148,220.02295 190.53853,221.48059 189.47343,222.2119 188.29304,222.71318 187.11038,223.22669 186.13568,223.43749 L 184.4293,220.95226 184.72637,220.74829 Q 185.73666,220.82223 186.92462,220.51831 188.11032,220.22661 189.09571,219.55003 189.4435,219.31123 189.75646,219.02172 190.06716,218.74443 190.29641,218.39511 190.50437,218.09241 190.55302,217.7285 190.60665,217.37184 190.41263,217.08926 190.11912,216.66177 189.63387,216.65378 189.1536,216.65304 188.11856,217.08651 187.43985,217.37128 186.81683,217.62846 186.18657,217.89063 185.41691,218.12056 183.89932,218.56551 182.82987,218.26566 181.75814,217.97802 180.99201,216.8622 Z"
       id="path86" />
    <path
       d="M 160.55894,222.25387 163.74998,220.84242 165.64802,222.89563 170.08493,220.9331 169.84269,218.14751 172.95335,216.77161 173.82635,230.69542 170.27361,232.26686 Z M 167.36614,224.75932 170.7356,228.40093 170.308,223.45809 Z"
       id="path88" />
    <path
       d="M 147.49516,226.01983 150.624,225.13351 158.41656,232.26194 155.9684,223.61958 158.94503,222.77638 162.51186,235.36785 158.63041,236.46736 151.9953,230.55485 154.03863,237.76809 151.062,238.61129 Z"
       id="path90" />
    <path
       d="M 133.00151,234.73959 Q 132.762,232.92723 133.39977,231.38014 134.03869,229.84177 135.20079,228.90803 136.07455,228.20744 137.17734,227.8312 138.28013,227.45497 139.8311,227.25 L 144.40558,226.64548 146.12013,239.61959 141.41495,240.24139 Q 139.82913,240.45096 138.64327,240.33284 137.45857,240.22344 136.60989,239.83912 135.1598,239.1974 134.2088,237.9046 133.25023,236.62167 133.00151,234.73959 Z M 136.46415,234.3086 Q 136.63341,235.58945 137.22368,236.43346 137.80639,237.28733 138.88508,237.66784 139.43255,237.85259 139.98429,237.86833 140.52847,237.89394 141.60892,237.75115 L 142.45411,237.63946 141.38094,229.51866 140.53574,229.63035 Q 139.34202,229.7881 138.79819,229.96636 138.25551,230.15332 137.76199,230.5111 136.91618,231.15481 136.60438,232.08256 136.29373,233.01903 136.46415,234.3086 Z"
       id="path92" />
    <path
       d="M 115.94857,237.03614 Q 115.91787,237.52737 116.0977,237.89085 116.27753,238.25434 116.75615,238.48679 117.08948,238.64853 117.54398,238.70335 117.99793,238.76694 118.60319,238.80476 L 119.82249,238.88096 120.04232,235.36341 119.00723,235.29872 Q 118.20021,235.24829 117.65141,235.29325 117.10262,235.33821 116.71665,235.59589 116.34878,235.84589 116.1706,236.16059 115.98311,236.48351 115.94857,237.03614 Z M 111.26045,227.64635 115.37449,227.90345 118.6366,232.9155 120.18923,233.01253 120.48854,228.22304 123.83943,228.43245 123.02318,241.49388 117.37404,241.14085 Q 116.21614,241.06849 115.39103,240.88483 114.56592,240.70118 113.86525,240.21708 113.15582,239.73244 112.76985,239.00382 112.37456,238.28343 112.44034,237.23079 112.53079,235.78342 113.26324,234.91335 113.98692,234.04273 115.27037,233.5153 Z"
       id="path94" />
    <path
       d="M 98.135491,225.00258 101.55794,225.68213 101.93065,228.45329 106.68931,229.39816 108.09248,226.97962 111.42871,227.64205 104.13854,239.53693 100.32816,238.78035 Z M 102.26508,230.96595 102.92862,235.88269 105.42028,231.59244 Z"
       id="path96" />
    <path
       d="M 82.692317,226.5977 Q 83.293086,224.87111 84.558245,223.77585 85.820516,222.68889 87.278321,222.37721 88.37375,222.14418 89.527965,222.30383 90.682181,222.46349 92.159745,222.97761 L 96.517727,224.49398 92.217028,236.85404 87.734532,235.29436 Q 86.223764,234.76868 85.217581,234.1301 84.208509,233.49981 83.623172,232.77501 82.616332,231.54992 82.347981,229.96761 82.068441,228.3907 82.692317,226.5977 Z M 85.979117,227.76926 Q 85.554535,228.9895 85.7024,230.00876 85.839075,231.03344 86.631572,231.85824 87.037565,232.26938 87.523339,232.53146 87.997923,232.79896 89.027237,233.15711 L 89.832426,233.43728 92.524335,225.70082 91.719146,225.42065 Q 90.58192,225.02495 90.016001,224.93971 89.447194,224.86277 88.845524,224.96052 87.800628,225.1553 87.105052,225.84386 86.406587,226.54073 85.979117,227.76926 Z"
       id="path98" />
    <path
       d="M 76.372035,216.242 83.261766,219.599 82.245425,221.68488 80.317565,220.74554 76.617932,228.33846 78.545792,229.27781 77.529451,231.36369 70.639721,228.00669 71.656062,225.92081 73.583922,226.86015 77.283555,219.26723 75.355695,218.32788 Z"
       id="path100" />
    <path
       d="M 59.843591,213.69217 Q 61.540126,211.06314 64.047417,210.48447 66.549942,209.9132 69.208516,211.62879 71.859706,213.33963 72.370231,215.85525 72.875992,218.37825 71.179456,221.00729 69.468625,223.65848 66.970865,224.22237 64.46834,224.79365 61.817151,223.08282 59.173346,221.37675 58.655436,218.85636 58.132759,216.34336 59.843591,213.69217 Z M 65.399132,213.33372 Q 64.661518,213.56902 64.023695,214.11977 63.381106,214.67789 62.785412,215.60101 62.146829,216.59059 61.9278,217.43251 61.708771,218.27442 61.801616,218.94103 61.892314,219.62716 62.258435,220.14585 62.61717,220.65977 63.148885,221.00289 63.687985,221.35077 64.291909,221.46852 64.888449,221.58151 65.573168,221.39576 66.209285,221.22048 66.917392,220.64187 67.613349,220.06588 68.23287,219.10584 68.866688,218.12364 69.093102,217.28649 69.307365,216.45196 69.219286,215.77797 69.131207,215.10398 68.769852,214.57791 68.408497,214.05184 67.862012,213.69919 67.315528,213.34654 66.687302,213.23403 66.054311,213.1289 65.399132,213.33372 Z"
       id="path102" />
    <path
       d="M 54.376208,200.57795 61.595904,206.65901 53.165087,216.66844 50.583744,214.4942 57.383885,206.42078 52.745533,202.51396 Z"
       id="path104" />
    <path
       d="M 39.609204,194.41943 Q 41.910918,192.29996 44.4832,192.36867 47.049017,192.44333 49.192305,194.77091 51.329639,197.09202 51.192881,199.65528 51.049658,202.22449 48.747944,204.34396 46.426833,206.48129 43.867482,206.40068 41.301665,206.32602 39.164331,204.0049 37.032951,201.69026 37.163755,199.12054 37.288093,196.55677 39.609204,194.41943 Z M 45.077064,195.46587 Q 44.30401,195.50865 43.548439,195.88181 42.786402,196.26092 41.978215,197.00512 41.11184,197.8029 40.688645,198.56296 40.26545,199.32303 40.18813,199.99161 40.103833,200.67857 40.328155,201.2725 40.546523,201.85997 40.97518,202.32548 41.409791,202.79747 41.964876,203.06293 42.514008,203.32193 43.22343,203.31385 43.883177,203.30372 44.713774,202.92121 45.531953,202.53819 46.372467,201.76423 47.232377,200.9724 47.661525,200.2188 48.078255,199.46469 48.16204,198.79015 48.245825,198.11562 48.027969,197.51573 47.810113,196.91584 47.369549,196.4374 46.928984,195.95895 46.349061,195.69246 45.762672,195.43193 45.077064,195.46587 Z"
       id="path106" />
    <path
       d="M 35.834195,178.97896 Q 36.614606,179.50899 37.718692,180.50977 38.815535,181.51552 39.63219,182.70326 41.524441,185.45534 41.103139,188.03824 40.674596,190.62612 38.038393,192.43869 35.525309,194.16662 32.909364,193.65071 30.286176,193.13978 28.354088,190.32977 27.622086,189.26514 27.155341,188.16747 26.681353,187.07477 26.44182,185.50088 L 28.969388,183.763 29.183512,184.07442 Q 29.170852,184.38178 29.164543,184.96209 29.150991,185.54738 29.204429,186.04394 29.261492,186.62334 29.483328,187.30277 29.700185,187.97496 30.13341,188.60505 30.64133,189.34376 31.271907,189.79549 31.902484,190.24721 32.680162,190.41647 33.428416,190.57396 34.286197,190.37882 35.131755,190.18142 36.008076,189.57889 37.796928,188.34892 38.093342,186.74785 38.389757,185.14678 37.114978,183.29275 37.005427,183.13342 36.868715,182.95009 36.727023,182.75953 36.602987,182.61016 L 34.488231,184.06421 35.967174,186.21517 33.932083,187.61444 30.511093,182.63897 Z"
       id="path108" />
    <path
       d="M 31.826542,169.82372 35.407858,176.59956 33.356457,177.68381 32.354345,175.78782 24.886933,179.73466 25.889044,181.63065 23.837643,182.71491 20.256327,175.93906 22.307728,174.85481 23.30984,176.7508 30.777252,172.80396 29.775141,170.90797 Z"
       id="path110" />
    <path
       d="M 23.020722,159.30932 Q 24.817632,158.59524 26.551746,159.6747 28.274446,160.74924 29.313095,163.36292 29.913564,164.87396 30.100113,166.10498 30.275248,167.33107 30.256353,168.4735 L 27.340458,169.63224 27.204135,169.28919 Q 27.593826,168.00888 27.533253,166.64268 27.469434,165.26832 27.028008,164.1575 26.914405,163.87163 26.680389,163.42554 26.446373,162.97945 26.215176,162.73085 25.925342,162.42989 25.61393,162.28883 25.299273,162.1396 24.866381,162.31163 24.46616,162.47067 24.316611,162.92732 24.155648,163.37905 24.260122,164.09414 24.369412,164.84515 24.535663,165.6681 24.690501,166.48612 24.736125,167.24352 24.848097,168.97705 24.268048,169.99254 23.676586,171.0031 22.410581,171.5062 20.711684,172.18132 19.037991,171.08731 17.352884,169.98838 16.40187,167.59522 15.924741,166.39456 15.69746,165.13244 15.458765,163.8654 15.469173,162.86821 L 18.270719,161.75491 18.403796,162.08979 Q 18.107837,163.05859 18.140981,164.28436 18.162711,165.50522 18.604137,166.61603 18.759934,167.00809 18.972906,167.37742 19.174464,167.74183 19.464299,168.04279 19.713401,168.31264 20.057483,168.44072 20.393398,168.57205 20.711942,168.44546 21.19384,168.25396 21.309149,167.78255 21.41629,167.31438 21.22293,166.20901 21.095628,165.48408 20.982879,164.81956 20.866884,164.14688 20.813199,163.3454 20.715566,161.76695 21.244932,160.79052 21.762884,159.80917 23.020722,159.30932 Z"
       id="path112" />
    <path
       d="M 13.436319,148.55894 14.479848,152.51038 24.685622,149.81516 25.547375,153.07829 15.3416,155.77351 16.385128,159.72496 13.937782,160.37127 10.988973,149.20525 Z"
       id="path114" />
    <path
       d="M 17.82606,134.25903 Q 19.74114,133.99211 21.169309,135.45249 22.587558,136.90537 22.97582,139.69095 23.200284,141.30135 23.089164,142.54146 22.968127,143.77407 22.678479,144.87933 L 19.570826,145.31248 19.519867,144.94687 Q 20.202448,143.79572 20.468041,142.45422 20.732421,141.10402 20.56741,139.92015 20.524944,139.61548 20.403555,139.12658 20.282166,138.63768 20.116618,138.34129 19.906544,137.98011 19.637538,137.76913 19.36732,137.54945 18.905959,137.61376 18.479419,137.67321 18.225706,138.08128 17.962075,138.48186 17.893747,139.20131 17.821568,139.95679 17.787636,140.79567 17.743786,141.62707 17.608246,142.37363 17.30535,144.08417 16.500744,144.93286 15.686221,145.77406 14.336959,145.96213 12.526338,146.2145 11.160317,144.75433 9.7843788,143.28667 9.4288768,140.73613 9.2505191,139.45651 9.3294571,138.17652 9.398477,136.88904 9.6453898,135.92285 L 12.631174,135.50668 12.68092,135.86358 Q 12.163365,136.73438 11.904474,137.93297 11.635665,139.12406 11.800676,140.30793 11.858915,140.72576 11.978089,141.1351 12.087344,141.53695 12.297419,141.89813 12.475312,142.21942 12.779137,142.42555 13.074257,142.63289 13.413749,142.58557 13.927338,142.51398 14.151296,142.08343 14.366549,141.6541 14.441212,140.53444 14.489704,139.80001 14.537983,139.12773 14.58505,138.44674 14.723229,137.65544 15.003227,136.09896 15.749324,135.27617 16.485504,134.44589 17.82606,134.25903 Z"
       id="path116" />
  </g>
  <g
     class="Img_l"
     layer="34"
     id="Img34"
     x="128"
     y="119"
     s="65"
     al="10"
     transform="matrix(0.64012504,0.11287132,-0.11287132,0.64012504,62.093285,24.875456)"
     fill="#0078ff">
    <!--?xml version="1.0" encoding="UTF-8"?-->
    <svg
       version="1.1"
       width="250"
       height="250"
       id="Img-upsvg34"
       color="#0078ff"
       viewBox="0 0 500 500">
      <path
         d="M 0,0 C 0.39678955,0.88445801 0.7935791,1.768916 1.2023926,2.6801758 12.764116,28.420403 24.820645,53.574122 39,78 39.688359,79.199795 39.688359,79.199795 40.390625,80.423828 56.967861,109.26334 76.124672,137.11002 97,163 98.136953,164.41152 98.136953,164.41152 99.296875,165.85156 101.51532,168.58135 103.75187,171.29462 106,174 106.63374,174.76329 106.63374,174.76329 107.28027,175.54199 113.53891,183.06241 119.98874,190.36565 126.64697,197.53369 127.96701,198.96425 129.27085,200.4097 130.57422,201.85547 135.96465,207.82604 141.51017,213.61346 147.1875,219.3125 147.84065,219.97024 148.4938,220.62799 149.16675,221.30566 153.05278,225.17946 157.05363,228.86298 161.20728,232.448 163.38909,234.33684 165.50518,236.29206 167.625,238.25 173.8256,243.83621 180.3783,248.92806 187,254 187.96414,254.74153 187.96414,254.74153 188.94775,255.49805 203.4364,266.61399 218.61226,277.80613 235,286 233.38662,321.33385 228.69869,358.19345 218,392 213.96194,390.63733 211.45632,388.85908 208.375,385.9375 204.84009,382.65958 201.25371,379.5253 197.5,376.5 193.02714,372.88151 188.75304,369.09941 184.50391,365.22266 182.04274,363.03794 179.51339,360.98501 176.9375,358.9375 171.07469,354.20215 165.63768,349.0503 160.18921,343.84741 156.12343,339.96907 151.98493,336.21184 147.73901,332.53174 145.10525,330.21189 142.68595,327.71045 140.25,325.1875 138.32212,323.31317 136.35368,321.56461 134.31665,319.81226 130.28334,316.2924 126.46159,312.60684 122.68359,308.81641 122.02344,308.15721 121.36328,307.49801 120.68312,306.81883 119.29964,305.43603 117.91741,304.05199 116.53638,302.66675 114.44268,300.5677 112.3437,298.47404 110.24414,296.38086 108.8903,295.02636 107.53678,293.67155 106.18359,292.31641 105.56673,291.70157 104.94987,291.08673 104.31432,290.45326 100.58912,286.7083 97.0555,282.84779 93.620499,278.83458 91.980705,276.97816 90.268342,275.23369 88.5,273.5 85.464051,270.51128 82.654913,267.38294 79.875,264.15625 77.826409,261.80037 75.72797,259.49493 73.625,257.1875 69.723197,252.86388 66.018515,248.41258 62.359375,243.88281 60.348116,241.42535 58.293375,239.01503 56.214355,236.61499 48.957918,228.20382 42.359573,219.31748 35.763184,210.38477 34.189331,208.25608 32.606534,206.13451 31.019531,204.01562 -1.0280822,161.0577 -41.452612,100.0505 -41,44 -35.840926,27.598764 -18.929587,10.097433 -4.875,0.92578125 -3,0 -3,0 0,0 Z"
         fill="#0078ff"
         transform="translate(175,100)"
         id="path9" />
      <path
         d="M 0,0 C 3.538106,3.3658157 6.3575907,6.7525302 9.0625,10.8125 20.670937,27.952423 33.652119,44.191013 47,60 27.956288,101.84605 -4.8241768,142.4846 -37.59375,174.55859 -39.162526,176.11204 -39.162526,176.11204 -40.9375,178.5 -43.350017,181.42426 -46.054699,183.72885 -48.933594,186.18359 -50.844632,187.86343 -52.610494,189.60625 -54.375,191.4375 -58.566574,195.7166 -63.271628,199.33718 -68,203 -70.826528,200.59482 -71.706283,198.49118 -72.726562,194.95312 -73.031587,193.90085 -73.336611,192.84857 -73.650879,191.7644 -73.972339,190.60465 -74.293799,189.4449 -74.625,188.25 -74.968374,187.02644 -75.311748,185.80288 -75.665527,184.54224 -81.964323,161.7886 -87.013271,138.66096 -91.5625,115.5 -91.814028,114.23116 -92.065557,112.96232 -92.324707,111.65503 -92.937416,108.44238 -93.496929,105.23144 -94,102 -94.120608,101.26749 -94.241216,100.53498 -94.365479,99.780273 -94.539062,97.953125 -94.539062,97.953125 -94,95 -91.905348,93.0027 -90.233942,91.724292 -87.8125,90.25 -86.51626,89.394257 -85.223363,88.533434 -83.933594,87.667969 -83.274722,87.230171 -82.61585,86.792373 -81.937012,86.341309 -76.626464,82.663952 -71.835095,78.270693 -67,74 -66.071875,73.184023 -65.14375,72.368047 -64.1875,71.527344 -57.654358,65.656589 -51.409739,59.509654 -45.1875,53.3125 -44.386831,52.516504 -43.586162,51.720508 -42.76123,50.900391 -37.968329,46.094506 -33.407538,41.160028 -29,36 -28.026737,34.882207 -27.052807,33.764994 -26.078125,32.648437 -16.943939,22.10165 -8.3002731,11.216585 0,0 Z"
         fill="#0078ff"
         transform="translate(185,288)"
         id="path11" />
      <path
         d="M 0,0 C 27.291507,22.140098 38.215247,66.29754 45.257812,99.078125 45.421926,99.841653 45.58604,100.60518 45.755127,101.39185 46.577797,105.47021 46.984292,109.29461 46.820312,113.45313 43.923621,109.95381 41.323372,106.32234 38.761475,102.57813 24.060503,81.191422 6.1009134,64.885284 -19.179687,57.453125 -20.234141,57.133437 -21.288594,56.81375 -22.375,56.484375 -51.747092,49.124315 -86.984639,54.450314 -113.29102,69.318848 -129.85146,79.264533 -140.52653,94.10504 -150.17969,110.45313 -151.46988,106.76013 -150.92733,103.92582 -150.21094,100.125 -149.97335,98.862202 -149.73576,97.599404 -149.49097,96.29834 -149.22199,94.932983 -148.95152,93.567916 -148.67969,92.203125 -148.54342,91.510838 -148.40715,90.818551 -148.26675,90.105286 -141.73717,57.156932 -131.57049,18.478877 -102.28516,-1.6367187 -69.845894,-21.589925 -31.602615,-22.427662 0,0 Z"
         fill="#0078ff"
         transform="translate(283.17969,26.546875)"
         id="path13" />
      <path
         d="M 0,0 C 13.160622,2.7606902 24.350342,22.159921 31.363281,32.585937 32.520028,34.29207 33.731901,35.961432 34.980469,37.601562 41.274252,46.319897 40.907002,53.119128 39.363281,63.429687 35.869704,84.248945 28.266788,104.11485 19,123 18.578477,123.86222 18.156953,124.72444 17.722656,125.61279 12.858381,135.45862 7.6212755,144.95995 1.5625,154.125 1.0664526,154.87733 0.57040527,155.62966 0.05932617,156.40479 -2.2987499,159.87167 -4.3506409,162.77415 -8,165 -14.902338,156.70051 -21.159504,147.96305 -27.432129,139.18506 -28.822961,137.24673 -30.225827,135.31828 -31.636719,133.39453 -36.527263,126.70328 -41.199644,119.86419 -45.75,112.9375 -46.30051,112.1274 -46.851021,111.31731 -47.418213,110.48267 -51.109496,104.76205 -51.109496,104.76205 -50.613281,101.30859 -48.64464,98.491482 -46.606412,95.792864 -44.4375,93.125 -38.910988,86.126754 -34.361747,78.76581 -30,71 -29.613765,70.323242 -29.227529,69.646484 -28.82959,68.949219 -16.534229,47.247378 -7.7860913,23.634352 0,0 Z"
         fill="#0078ff"
         transform="translate(289,102)"
         id="path15" />
    </svg>
  </g>
</svg>
